<?xml version="1.0" encoding="UTF-8"?>
<svg width="310px" height="310px" viewBox="0 0 310 310" version="1.1" xmlns="http://www.w3.org/2000/svg" xmlns:xlink="http://www.w3.org/1999/xlink">
    <title>icon</title>
    <defs>
        <filter x="-6.5%" y="-8.0%" width="113.0%" height="116.0%" filterUnits="objectBoundingBox" id="filter-1">
            <feOffset dx="0" dy="0" in="SourceAlpha" result="shadowOffsetOuter1"></feOffset>
            <feGaussianBlur stdDeviation="4" in="shadowOffsetOuter1" result="shadowBlurOuter1"></feGaussianBlur>
            <feColorMatrix values="0 0 0 0 1   0 0 0 0 1   0 0 0 0 1  0 0 0 0.5 0" type="matrix" in="shadowBlurOuter1" result="shadowMatrixOuter1"></feColorMatrix>
            <feMerge>
                <feMergeNode in="shadowMatrixOuter1"></feMergeNode>
                <feMergeNode in="SourceGraphic"></feMergeNode>
            </feMerge>
        </filter>
        <linearGradient x1="16.6068656%" y1="46.8635815%" x2="88.8131792%" y2="53.656576%" id="linearGradient-2">
            <stop stop-color="#000000" offset="0%"></stop>
            <stop stop-color="#999996" offset="100%"></stop>
        </linearGradient>
        <linearGradient x1="23.0795059%" y1="36.502788%" x2="79.5560019%" y2="78.9973822%" id="linearGradient-3">
            <stop stop-color="#000000" offset="0%"></stop>
            <stop stop-color="#2F2F2F" offset="11.13%"></stop>
            <stop stop-color="#4B4B4B" offset="18.79%"></stop>
            <stop stop-color="#2E2E2E" offset="54.55%"></stop>
            <stop stop-color="#2C2C2C" offset="72.66%"></stop>
            <stop stop-color="#232323" offset="83.3%"></stop>
            <stop stop-color="#151515" offset="91.98%"></stop>
            <stop stop-color="#010101" offset="99.6%"></stop>
            <stop stop-color="#000000" offset="100%"></stop>
        </linearGradient>
        <linearGradient x1="51.8465267%" y1="53.6563036%" x2="57.5442987%" y2="62.9302562%" id="linearGradient-4">
            <stop stop-color="#000000" offset="0%"></stop>
            <stop stop-color="#000000" stop-opacity="0" offset="100%"></stop>
        </linearGradient>
        <linearGradient x1="40.4291658%" y1="49.9966312%" x2="100.00219%" y2="49.9966312%" id="linearGradient-5">
            <stop stop-color="#000000" offset="0%"></stop>
            <stop stop-color="#000000" stop-opacity="0" offset="100%"></stop>
        </linearGradient>
        <linearGradient x1="50.0000846%" y1="-15.2678435%" x2="50.0000846%" y2="73.6317895%" id="linearGradient-6">
            <stop stop-color="#000000" offset="0%"></stop>
            <stop stop-color="#000000" stop-opacity="0" offset="100%"></stop>
        </linearGradient>
        <linearGradient x1="8.71357999%" y1="42.2979375%" x2="79.9100595%" y2="56.3492012%" id="linearGradient-7">
            <stop stop-color="#FFFFFF" offset="0%"></stop>
            <stop stop-color="#000000" stop-opacity="0" offset="100%"></stop>
        </linearGradient>
        <linearGradient x1="-9.46324505%" y1="42.4962997%" x2="96.1145782%" y2="56.7487845%" id="linearGradient-8">
            <stop stop-color="#FFFFFF" offset="0%"></stop>
            <stop stop-color="#000000" stop-opacity="0" offset="100%"></stop>
        </linearGradient>
        <linearGradient x1="0.660028742%" y1="-18.591665%" x2="130.405461%" y2="161.769657%" id="linearGradient-9">
            <stop stop-color="#363330" offset="0%"></stop>
            <stop stop-color="#474747" offset="100%"></stop>
        </linearGradient>
        <radialGradient cx="50.0022889%" cy="49.9988556%" fx="50.0022889%" fy="49.9988556%" r="50.0017166%" id="radialGradient-10">
            <stop stop-color="#8C91A1" offset="0%"></stop>
            <stop stop-color="#1A1A1A" offset="100%"></stop>
        </radialGradient>
        <linearGradient x1="88.6502003%" y1="96.8571429%" x2="6.1481976%" y2="-3.14552737%" id="linearGradient-11">
            <stop stop-color="#8C918C" offset="0%"></stop>
            <stop stop-color="#000000" offset="100%"></stop>
        </linearGradient>
        <linearGradient x1="145.218187%" y1="191.28166%" x2="29.0158682%" y2="18.8831248%" id="linearGradient-12">
            <stop stop-color="#33362B" offset="0%"></stop>
            <stop stop-color="#000000" offset="100%"></stop>
        </linearGradient>
        <linearGradient x1="-51.9421023%" y1="-39.7020798%" x2="146.056773%" y2="134.536256%" id="linearGradient-13">
            <stop stop-color="#79BF00" offset="0%"></stop>
            <stop stop-color="#0002BF" offset="100%"></stop>
        </linearGradient>
        <radialGradient cx="23.3045775%" cy="67.1892606%" fx="23.3045775%" fy="67.1892606%" r="59.2764085%" id="radialGradient-14">
            <stop stop-color="#FFFFFF" offset="0%"></stop>
            <stop stop-color="#FFFFFF" stop-opacity="0" offset="100%"></stop>
        </radialGradient>
        <linearGradient x1="-2.09024191%" y1="49.995397%" x2="97.9016037%" y2="49.995397%" id="linearGradient-15">
            <stop stop-color="#000000" offset="0%"></stop>
            <stop stop-color="#2F2F2F" offset="11.13%"></stop>
            <stop stop-color="#4B4B4B" offset="18.79%"></stop>
            <stop stop-color="#2E2E2E" offset="54.55%"></stop>
            <stop stop-color="#2C2C2C" offset="72.66%"></stop>
            <stop stop-color="#232323" offset="83.3%"></stop>
            <stop stop-color="#151515" offset="91.98%"></stop>
            <stop stop-color="#010101" offset="99.6%"></stop>
            <stop stop-color="#000000" offset="100%"></stop>
        </linearGradient>
        <linearGradient x1="53.1303317%" y1="-110.015508%" x2="47.9486879%" y2="132.499354%" id="linearGradient-16">
            <stop stop-color="#FFFFFF" offset="0%"></stop>
            <stop stop-color="#000000" stop-opacity="0" offset="100%"></stop>
        </linearGradient>
        <linearGradient x1="0.862417464%" y1="49.9526814%" x2="101.715402%" y2="49.9526814%" id="linearGradient-17">
            <stop stop-color="#000000" offset="0%"></stop>
            <stop stop-color="#444242" offset="29.7%"></stop>
            <stop stop-color="#000000" offset="100%"></stop>
        </linearGradient>
        <linearGradient x1="130.551738%" y1="34.0016901%" x2="15.9229692%" y2="57.5445708%" id="linearGradient-18">
            <stop stop-color="#FFFFFF" offset="0%"></stop>
            <stop stop-color="#000000" stop-opacity="0" offset="100%"></stop>
        </linearGradient>
        <linearGradient x1="120.467568%" y1="29.9383635%" x2="14.0191178%" y2="61.1538389%" id="linearGradient-19">
            <stop stop-color="#FFFFFF" offset="0%"></stop>
            <stop stop-color="#363636" offset="100%"></stop>
        </linearGradient>
        <linearGradient x1="45.1154739%" y1="44.2353787%" x2="51.0722902%" y2="51.5535047%" id="linearGradient-20">
            <stop stop-color="#FFFFFF" offset="0%"></stop>
            <stop stop-color="#000000" stop-opacity="0" offset="100%"></stop>
        </linearGradient>
        <linearGradient x1="34.8961196%" y1="-106.623337%" x2="57.78815%" y2="105.498224%" id="linearGradient-21">
            <stop stop-color="#FFFFFF" offset="0%"></stop>
            <stop stop-color="#000000" stop-opacity="0" offset="100%"></stop>
        </linearGradient>
    </defs>
    <g id="Page-1" stroke="none" stroke-width="1" fill="none" fill-rule="evenodd">
        <g id="icon">
            <rect id="Rectangle-Copy-2" fill="#000000" x="0" y="0" width="310" height="310" rx="8"></rect>
            <g id="PEO-DSLR_click-0-Copy-2" filter="url(#filter-1)" transform="translate(25.833333, 12.916667)">
                <g id="_x30_0_12_">
                    <polygon id="Rectangle-path" fill="#0F0F0F" fill-rule="nonzero" points="126.337917 6.16770833 166.89625 6.16770833 166.89625 18.8647917 126.337917 18.8647917"></polygon>
                    <g id="Group" transform="translate(167.916667, 19.375000)" fill-rule="nonzero">
                        <polygon id="Shape" fill="url(#linearGradient-2)" points="52.8679167 39.25375 18.8777083 33.36375 22.3264583 13.4204167 56.3166667 19.2975"></polygon>
                        <g id="Clipped" fill="#050100" opacity="0.75">
                            <g id="Group" transform="translate(12.916667, 12.916667)">
                                <polygon id="Rectangle-path" transform="translate(24.670198, 13.426007) rotate(9.834392) translate(-24.670198, -13.426007) " points="7.42331553 3.30585569 41.9170795 3.30585569 41.9170795 23.5461583 7.42331553 23.5461583"></polygon>
                            </g>
                        </g>
                    </g>
                    <g id="Group" fill-rule="nonzero">
                        <path d="M16.0941667,68.5875 C16.0941667,58.376875 30.5995833,49.25125 39.7316667,46.5645833 C48.86375,43.8714583 89.686875,44.4204167 100.976042,37.9685417 C112.25875,31.5166667 113.330833,19.1554167 122.462917,15.3966667 L170.280417,15.3966667 C170.280417,15.3966667 176.732292,16.4816667 179.4125,21.8485417 C182.092708,27.221875 188.008542,40.1127083 193.375417,42.2633333 C198.74875,44.4139583 215.940833,45.4795833 220.778125,48.70875 C225.608958,51.9314583 230.975833,59.985 231.518333,65.9008333 L231.518333,164.216042 C231.518333,164.216042 226.145,175.49875 218.085,175.49875 L62.290625,175.49875 L56.9172917,181.401667 L22.5395833,181.401667 C22.5395833,181.401667 16.62375,178.715 16.62375,171.733542 C16.62375,164.752083 16.0941667,68.5875 16.0941667,68.5875 Z" id="Shape" fill="url(#linearGradient-3)"></path>
                        <g id="Clipped" fill="#050100" opacity="0.75">
                            <g id="Group" transform="translate(12.916667, 12.916667)">
                                <path d="M3.1775,55.6708333 C3.1775,45.4602083 17.6829167,36.3345833 26.815,33.6479167 C35.9470833,30.9547917 76.7702083,31.50375 88.059375,25.051875 C99.3420833,18.6 100.414167,6.23875 109.54625,2.48 L157.36375,2.48 C157.36375,2.48 163.815625,3.565 166.495833,8.931875 C169.176042,14.3052083 175.091875,27.1960417 180.45875,29.3466667 C185.832083,31.4972917 203.024167,32.5629167 207.861458,35.7920833 C212.692292,39.0147917 218.059167,47.0683333 218.601667,52.9841667 L218.601667,151.299375 C218.601667,151.299375 213.228333,162.582083 205.168333,162.582083 L49.3739583,162.582083 L44.000625,168.485 L9.62291667,168.485 C9.62291667,168.485 3.70708333,165.798333 3.70708333,158.816875 C3.70708333,151.835417 3.1775,55.6708333 3.1775,55.6708333 Z" id="Shape"></path>
                            </g>
                        </g>
                    </g>
                    <path d="M189.422917,41.3979167 C189.422917,41.3979167 208.268333,88.505 205.807708,108.5775 C205.807708,108.5775 215.230417,114.3125 213.59,124.962292 C211.949583,135.605625 207.855,135.19875 207.855,135.19875 L214.817083,142.981042 C214.817083,142.981042 223.419583,112.672083 216.864375,96.6941667 C210.302708,80.71625 198.018958,52.448125 198.018958,47.5397917 C198.018958,42.6314583 189.422917,41.3979167 189.422917,41.3979167 Z" id="Shape" fill="url(#linearGradient-4)" fill-rule="nonzero"></path>
                    <rect id="Rectangle-path" fill="url(#linearGradient-5)" fill-rule="nonzero" x="58.338125" y="79.495625" width="29.4952083" height="95.8545833"></rect>
                    <path d="M106.349375,54.0820833 C108.5,49.7808333 114.409375,47.6302083 121.390833,48.16625 C128.37875,48.70875 150.395208,50.8529167 177.261875,48.16625 C186.93,44.4139583 203.05,93.2970833 201.971458,110.489167 L92.38,113.705417 C92.38,113.705417 96.080625,74.613125 106.349375,54.0820833 Z" id="Shape" fill="url(#linearGradient-6)" fill-rule="nonzero"></path>
                    <path d="M108.906875,78.6108333 L102.371042,87.2391667 C102.371042,87.2391667 121.675,66.68875 159.294792,69.6983333 C159.294792,69.6983333 129.23125,62.7491667 108.906875,78.6108333 Z" id="Shape" fill="url(#linearGradient-7)" fill-rule="nonzero"></path>
                    <path d="M124.167917,29.3854167 C116.805417,29.79875 113.085417,43.031875 118.265,47.2297917 C118.265,47.2297917 156.343333,50.2652083 177.843125,47.178125 C177.843125,47.178125 178.13375,32.1366667 170.719583,30.128125 C163.2925,28.113125 138.3375,28.578125 124.167917,29.3854167 Z" id="Shape" fill="url(#linearGradient-8)" fill-rule="nonzero" opacity="0.3"></path>
                    <g id="Group" transform="translate(77.500000, 64.583333)">
                        <circle id="Oval" fill="url(#linearGradient-9)" fill-rule="nonzero" cx="66.6370833" cy="68.4002083" r="62.9170833"></circle>
                        <path d="M126.118333,68.4002083 C126.118333,101.25375 99.4970833,127.881458 66.6435417,127.881458 C33.7770833,127.881458 7.14291667,101.25375 7.14291667,68.4002083 C7.14291667,35.5272917 33.7770833,8.90604167 66.6435417,8.90604167 C99.4970833,8.90604167 126.118333,35.5272917 126.118333,68.4002083 Z" id="Shape" fill="#232323" fill-rule="nonzero"></path>
                        <circle id="Oval" stroke="#595757" stroke-width="0.1915" fill="url(#radialGradient-10)" fill-rule="nonzero" cx="66.630625" cy="68.39375" r="56.4329167"></circle>
                        <g transform="translate(12.916667, 19.375000)" fill="#FFFFFF" fill-rule="nonzero" id="Shape">
                            <path d="M8.11166667,38.8920833 C8.14395833,39.0729167 8.156875,39.4216667 8.06645833,39.835 C7.87916667,40.7779167 7.17520833,41.4302083 6.05145833,41.2041667 C4.98583333,40.978125 4.475625,40.10625 4.69520833,39.0341667 C4.785625,38.595 4.92125,38.3560417 4.99229167,38.2527083 L5.27645833,38.420625 C5.173125,38.5691667 5.056875,38.78875 4.99875,39.0858333 C4.824375,39.9254167 5.211875,40.590625 6.12895833,40.7779167 C6.98791667,40.9522917 7.60791667,40.5454167 7.78229167,39.6864583 C7.83395833,39.3958333 7.83395833,39.1116667 7.79520833,38.924375 L8.11166667,38.8920833 Z"></path>
                            <path d="M9.02875,35.8308333 L8.9125,36.2377083 L7.75645833,36.3410417 L7.42708333,37.5875 L8.37,38.2591667 L8.26020833,38.6660417 L5.36041667,36.5735417 L5.483125,36.1214583 L9.02875,35.8308333 Z M7.46583333,36.3410417 L6.40666667,36.425 C6.16125,36.4379167 5.948125,36.444375 5.74145833,36.4379167 L5.74145833,36.4508333 C5.92875,36.5541667 6.10958333,36.6833333 6.29041667,36.7995833 L7.16875,37.4389583 L7.46583333,36.3410417 Z"></path>
                            <path d="M10.11375,32.8535417 L9.978125,33.2345833 L7.91145833,33.770625 C7.47875,33.8804167 7.03958333,33.9772917 6.63270833,34.0289583 L6.63270833,34.0483333 C7.03958333,34.1516667 7.41416667,34.2872917 7.963125,34.4810417 L9.35166667,34.971875 L9.2225,35.3335417 L6.07083333,34.21625 L6.21291667,33.809375 L8.27958333,33.266875 C8.74458333,33.1377083 9.145,33.0666667 9.5325,33.0214583 L9.5325,33.0020833 C9.08041667,32.879375 8.699375,32.7566667 8.20208333,32.5758333 L6.82645833,32.0914583 L6.96208333,31.7297917 L10.11375,32.8535417 Z"></path>
                            <path d="M10.0233333,28.8429167 C11.1083333,29.3208333 11.3279167,30.244375 10.9533333,31.0516667 C10.5658333,31.9041667 9.6875,32.2529167 8.72520833,31.8266667 C7.72416667,31.3875 7.40770833,30.476875 7.80166667,29.6114583 C8.20854167,28.7395833 9.10625,28.4360417 10.0233333,28.8429167 Z M8.893125,31.4327083 C9.551875,31.7233333 10.365625,31.62 10.6820833,30.9095833 C11.005,30.205625 10.5658333,29.5597917 9.861875,29.2497917 C9.241875,28.9785417 8.40875,29.0172917 8.07291667,29.76 C7.72416667,30.5220833 8.25375,31.135625 8.893125,31.4327083 Z"></path>
                            <path d="M13.1620833,26.5308333 L12.9683333,26.8925 L10.8564583,27.1120833 C10.404375,27.1572917 9.96520833,27.2089583 9.551875,27.1895833 L9.551875,27.2154167 C9.939375,27.3704167 10.2816667,27.55125 10.7854167,27.8354167 L12.0770833,28.5264583 L11.89625,28.8558333 L8.97708333,27.2929167 L9.17729167,26.9054167 L11.3020833,26.6664583 C11.7735417,26.62125 12.1804167,26.5954167 12.5679167,26.601875 L12.574375,26.5954167 C12.148125,26.408125 11.7929167,26.2272917 11.3408333,25.981875 L10.055625,25.30375 L10.2429167,24.955 L13.1620833,26.5308333 Z"></path>
                            <polygon points="13.5108333 20.3889583 14.589375 23.6633333 14.6022917 23.6827083 15.7841667 22.01 16.0295833 22.1908333 14.5441667 24.2897917 14.3697917 24.1541667 13.2783333 20.866875 13.271875 20.8604167 12.1933333 22.3716667 11.9479167 22.1972917 13.3235417 20.2404167"></polygon>
                            <path d="M16.93375,18.3545833 C17.86375,19.0972917 17.844375,20.0402083 17.2760417,20.7247917 C16.6754167,21.448125 15.751875,21.5514583 14.91875,20.8991667 C14.06625,20.2145833 13.98875,19.2522917 14.589375,18.5225 C15.2029167,17.7797917 16.139375,17.7345833 16.93375,18.3545833 Z M15.19,20.5633333 C15.751875,21.0154167 16.5527083,21.11875 17.0435417,20.5245833 C17.5408333,19.9175 17.2760417,19.18125 16.6754167,18.7097917 C16.1458333,18.29 15.3320833,18.1027083 14.8154167,18.7420833 C14.2858333,19.375 14.628125,20.1047917 15.19,20.5633333 Z"></path>
                            <path d="M19.4266667,15.7583333 C20.2727083,16.5720833 20.1629167,17.5085417 19.5429167,18.1479167 C18.890625,18.813125 17.9670833,18.8325 17.2179167,18.1027083 C16.43,17.3535417 16.4429167,16.3847917 17.1016667,15.713125 C17.7733333,15.035 18.7033333,15.054375 19.4266667,15.7583333 Z M17.5085417,17.7991667 C18.0252083,18.2964583 18.8066667,18.4708333 19.3427083,17.9283333 C19.87875,17.379375 19.685,16.6172917 19.1360417,16.0877083 C18.6516667,15.61625 17.8702083,15.3708333 17.3083333,15.9520833 C16.720625,16.54625 17.0047917,17.3083333 17.5085417,17.7991667 Z"></path>
                            <path d="M23.7085417,14.1760417 L23.3985417,14.4472917 L22.32,13.3945833 C21.9777083,13.0652083 21.525625,12.6260417 21.2995833,12.3677083 L21.2866667,12.380625 C21.4545833,12.74875 21.6160417,13.1427083 21.7904167,13.6077083 L22.416875,15.2933333 L22.184375,15.4870833 L20.6085417,14.6991667 C20.1435417,14.45375 19.7560417,14.2341667 19.41375,14.0210417 L19.4008333,14.0275 C19.6720833,14.3439583 20.014375,14.7702083 20.34375,15.1770833 L21.2414583,16.3266667 L20.9572917,16.585 L18.9035417,13.9370833 L19.2845833,13.6077083 L20.9314583,14.4279167 C21.331875,14.628125 21.66125,14.8154167 21.9777083,15.015625 L21.9841667,14.99625 C21.835625,14.68625 21.6935417,14.3439583 21.5320833,13.91125 L20.9120833,12.2127083 L21.2995833,11.8639583 L23.7085417,14.1760417 Z"></path>
                            <polygon points="27.59 11.2375 25.981875 12.3741667 24.1089583 9.68104167 24.4383333 9.435625 26.136875 11.89625 27.4091667 10.985625"></polygon>
                            <polygon points="29.7341667 9.91354167 28.0291667 10.985625 26.2272917 8.13104167 27.86125 7.11708333 28.0227083 7.381875 26.7439583 8.17625 27.3575 9.13854167 28.55875 8.389375 28.7202083 8.64125 27.5189583 9.39041667 28.2164583 10.5141667 29.56625 9.64875"></polygon>
                            <path d="M32.491875,8.41520833 L32.1366667,8.60895833 L30.2508333,7.64666667 C29.856875,7.44645833 29.4629167,7.23979167 29.1335417,6.994375 L29.120625,7.01375 C29.3595833,7.37541667 29.5404167,7.70479167 29.8116667,8.215 L30.5027083,9.49375 L30.1604167,9.68104167 L28.5910417,6.761875 L28.965625,6.55520833 L30.864375,7.5175 C31.2841667,7.730625 31.6329167,7.924375 31.949375,8.14395833 L31.9558333,8.1375 C31.7039583,7.75645833 31.5102083,7.41416667 31.2583333,6.94270833 L30.5802083,5.68333333 L30.9160417,5.48958333 L32.491875,8.41520833 Z"></path>
                            <path d="M33.44125,4.79208333 C33.3120833,4.785625 33.0602083,4.79854167 32.7695833,4.92125 C32.2916667,5.14083333 32.2335417,5.48958333 32.3433333,5.70270833 C32.4725,5.99979167 32.763125,6.05791667 33.2991667,6.01916667 C33.9579167,5.96104167 34.3647917,6.09020833 34.565,6.51645833 C34.7910417,6.98791667 34.565,7.54333333 33.82875,7.87270833 C33.5122917,8.01479167 33.13125,8.08583333 32.9052083,8.05354167 L32.879375,7.73708333 C33.1183333,7.76291667 33.4347917,7.71125 33.7125,7.58854167 C34.1775,7.381875 34.3454167,7.033125 34.1904167,6.71020833 C34.0483333,6.40666667 33.7835417,6.31625 33.2539583,6.36145833 C32.646875,6.42604167 32.1754167,6.32270833 31.9752083,5.91583333 C31.7620833,5.46375 32.026875,4.92770833 32.6533333,4.64354167 C32.9827083,4.50791667 33.2604167,4.46270833 33.4283333,4.475625 L33.44125,4.79208333 Z"></path>
                            <polygon points="39.525 5.59291667 37.62625 6.24520833 36.58 3.09354167 38.40125 2.48 38.4916667 2.770625 37.0708333 3.24854167 37.4195833 4.30770833 38.7629167 3.86208333 38.8597917 4.14625 37.5164583 4.591875 37.9233333 5.8125 39.428125 5.30875"></polygon>
                            <polygon points="39.9641667 5.444375 39.0664583 2.23458333 40.8747917 1.69854167 40.95875 1.98916667 39.5314583 2.4025 39.854375 3.55854167 41.1654167 3.1775 41.249375 3.46166667 39.9383333 3.84916667 40.3516667 5.34104167"></polygon>
                            <polygon points="41.9145833 3.40354167 43.2320833 3.119375 43.2966667 3.38416667 41.9791667 3.68125"></polygon>
                            <path d="M45.1179167,1.23354167 C45.0016667,1.18833333 44.75625,1.13666667 44.44625,1.20125 C43.9360417,1.298125 43.7875,1.608125 43.8391667,1.85354167 C43.8972917,2.17 44.1427083,2.29916667 44.67875,2.39604167 C45.318125,2.51875 45.6604167,2.73833333 45.7508333,3.20333333 C45.8477083,3.72645833 45.4989583,4.21083333 44.7045833,4.359375 C44.36875,4.4175 43.9941667,4.39166667 43.7875,4.30125 L43.845625,3.99125 C44.0652083,4.06875 44.36875,4.10104167 44.6722917,4.049375 C45.1566667,3.94604167 45.4020833,3.65541667 45.3439583,3.313125 C45.2858333,2.98375 45.0597917,2.82229167 44.5366667,2.74479167 C43.9489583,2.64791667 43.5227083,2.421875 43.43875,1.97625 C43.3483333,1.47895833 43.7358333,1.03333333 44.4010417,0.897708333 C44.75625,0.826666667 45.0339583,0.865416667 45.1825,0.917083333 L45.1179167,1.23354167 Z"></path>
                            <polygon points="49.6 3.61666667 49.3352083 0.710416667 49.32875 0.723333333 48.7539583 1.07208333 48.6247917 0.807291667 49.3610417 0.374583333 49.7097917 0.34875 50.0004167 3.59083333"></polygon>
                            <path d="M53.0875,0.206666667 L53.0939583,0.50375 L51.77,0.536041667 L51.634375,1.46604167 C51.711875,1.44666667 51.7958333,1.43375 51.9185417,1.43375 C52.5772917,1.42083333 53.165,1.75020833 53.1779167,2.39604167 C53.1908333,3.05479167 52.66125,3.51979167 51.9379167,3.53270833 C51.5697917,3.53916667 51.2533333,3.43583333 51.091875,3.351875 L51.1952083,3.080625 C51.3372917,3.158125 51.6085417,3.24854167 51.9314583,3.24854167 C52.39,3.235625 52.7839583,2.91916667 52.7645833,2.44770833 C52.758125,2.015 52.4352083,1.705 51.7377083,1.724375 C51.5439583,1.73083333 51.3889583,1.73729167 51.2597917,1.76958333 L51.46,0.251875 L53.0875,0.206666667 Z"></path>
                            <polygon points="53.82375 1.97625 55.1670833 2.00208333 55.160625 2.28625 53.8172917 2.26041667"></polygon>
                            <path d="M56.245625,1.7825 C55.858125,1.58229167 55.703125,1.28520833 55.7160417,1.01395833 C55.7483333,0.50375 56.2197917,0.19375 56.8204167,0.2325 C57.485625,0.27125 57.77625,0.684583333 57.756875,1.07854167 C57.7375,1.36270833 57.5566667,1.64041667 57.098125,1.80833333 L57.098125,1.82125 C57.54375,2.015 57.8020833,2.31854167 57.7697917,2.72541667 C57.7310417,3.26791667 57.195,3.61020833 56.5427083,3.57791667 C55.8452083,3.53270833 55.4383333,3.119375 55.4641667,2.64145833 C55.4964583,2.23458333 55.8,1.93104167 56.2391667,1.801875 L56.2391667,1.7825 L56.245625,1.7825 Z M57.35,2.73833333 C57.3758333,2.325 57.0852083,2.0925 56.6008333,1.92458333 C56.168125,2.034375 55.91625,2.29916667 55.8839583,2.60916667 C55.858125,2.98375 56.1229167,3.28083333 56.5620833,3.30666667 C57.0464583,3.32604167 57.3241667,3.080625 57.35,2.73833333 Z M56.11,0.994583333 C56.090625,1.34979167 56.3489583,1.55645833 56.7558333,1.67916667 C57.0852083,1.58875 57.3370833,1.38854167 57.3629167,1.07854167 C57.3822917,0.794375 57.2272917,0.516666667 56.7945833,0.484375 C56.361875,0.465 56.129375,0.716875 56.11,0.994583333 Z"></path>
                            <path d="M60.5404167,0.62 L60.5016667,0.917083333 L59.1841667,0.762083333 L58.9258333,1.65979167 C59.0097917,1.65979167 59.0872917,1.65979167 59.2229167,1.67270833 C59.8752083,1.76958333 60.4177083,2.15708333 60.3466667,2.82875 C60.2691667,3.468125 59.675,3.855625 58.9516667,3.77166667 C58.5770833,3.73291667 58.2864583,3.59729167 58.125,3.47458333 L58.2670833,3.22270833 C58.4027083,3.313125 58.6545833,3.429375 58.9775,3.48104167 C59.4360417,3.53916667 59.8752083,3.29375 59.9204167,2.81583333 C59.9720833,2.37020833 59.6814583,2.02145833 58.9839583,1.93104167 C58.7966667,1.90520833 58.62875,1.89875 58.5125,1.89875 L58.919375,0.419791667 L60.5404167,0.62 Z"></path>
                            <path d="M64.4929167,4.59833333 L64.0989583,4.52729167 L64.344375,3.158125 C64.4347917,2.70604167 64.28625,2.37666667 63.89875,2.29916667 C63.569375,2.24104167 63.2270833,2.460625 63.1754167,2.81583333 L62.8977083,4.29479167 L62.4972917,4.23020833 L62.7685417,2.770625 C62.8395833,2.383125 62.7039583,2.073125 62.3422917,2.00854167 C61.9935417,1.9375 61.6447917,2.189375 61.5672917,2.5575 L61.3154167,4.010625 L60.915,3.933125 L61.225,2.17645833 C61.2702083,1.9375 61.3025,1.76958333 61.3283333,1.569375 L61.6770833,1.63395833 L61.6383333,2.02145833 L61.65125,2.02145833 C61.845,1.82125 62.1097917,1.65333333 62.523125,1.73729167 C62.871875,1.80833333 63.1172917,2.04083333 63.1689583,2.344375 L63.181875,2.344375 C63.395,2.0925 63.6985417,1.94395833 64.111875,2.02791667 C64.4347917,2.07958333 64.90625,2.37020833 64.770625,3.1775 L64.4929167,4.59833333 Z"></path>
                            <path d="M68.6714583,5.80604167 L68.2839583,5.68979167 L68.665,4.36583333 C68.78125,3.91375 68.684375,3.57145833 68.2904167,3.45520833 C67.9739583,3.35833333 67.61875,3.55208333 67.5154167,3.894375 L67.115,5.3475 L66.7145833,5.23770833 L67.1214583,3.80395833 C67.2183333,3.429375 67.1279167,3.11291667 66.7533333,3.00958333 C66.4239583,2.89979167 66.049375,3.119375 65.9460417,3.47458333 L65.5391667,4.88895833 L65.1516667,4.77916667 L65.6360417,3.06125 C65.7070833,2.81583333 65.739375,2.64791667 65.7845833,2.45416667 L66.1397917,2.55104167 L66.0429167,2.93208333 L66.0558333,2.945 C66.2689583,2.76416667 66.5466667,2.62854167 66.9664583,2.75125 C67.3022917,2.85458333 67.5089583,3.11291667 67.54125,3.41 L67.5477083,3.41 C67.7995833,3.20979167 68.1095833,3.08708333 68.4970833,3.20979167 C68.8264583,3.30020833 69.2720833,3.61666667 69.0395833,4.4175 L68.6714583,5.80604167 Z"></path>
                            <polygon points="72.23 7.19458333 73.35375 4.495 73.3472917 4.495 72.6691667 4.54020833 72.6885417 4.24958333 73.5345833 4.19791667 73.8639583 4.33354167 72.6110417 7.37541667"></polygon>
                            <path d="M73.8833333,7.691875 C73.9479167,7.54979167 74.1029167,7.49166667 74.264375,7.56270833 C74.419375,7.63375 74.4710417,7.79520833 74.4,7.93729167 C74.341875,8.07291667 74.1804167,8.13104167 74.0189583,8.06 C73.8639583,7.97604167 73.8316667,7.82104167 73.8833333,7.691875 Z M74.6454167,6.08375 C74.7229167,5.93520833 74.8779167,5.87708333 75.0264583,5.948125 C75.194375,6.03854167 75.2395833,6.19354167 75.175,6.34208333 C75.1104167,6.47770833 74.9554167,6.54229167 74.7875,6.451875 C74.6260417,6.36791667 74.5872917,6.219375 74.6454167,6.08375 Z"></path>
                            <path d="M76.7572917,7.381875 C77.1125,7.63375 77.2933333,8.07291667 77.07375,8.49270833 C76.84125,8.94479167 76.2277083,9.15791667 75.485,8.776875 C75.1620833,8.6025 74.90375,8.36354167 74.806875,8.18916667 L75.0458333,8.001875 C75.1427083,8.12458333 75.3429167,8.37645833 75.64,8.525 C76.1889583,8.80270833 76.5570833,8.55729167 76.6927083,8.29895833 C76.938125,7.87916667 76.6216667,7.47229167 76.1825,7.25270833 L75.9629167,7.13645833 L76.0985417,6.8975 L76.3052083,7.02020833 C76.6345833,7.17520833 77.131875,7.21395833 77.3320833,6.85875 C77.46125,6.606875 77.403125,6.30333333 77.0027083,6.10958333 C76.7572917,5.97395833 76.4795833,5.96104167 76.2922917,5.98041667 L76.318125,5.68979167 C76.5247917,5.6575 76.9058333,5.70916667 77.209375,5.870625 C77.8358333,6.18708333 77.9197917,6.645625 77.7260417,7.00083333 C77.5645833,7.285 77.1964583,7.44645833 76.7572917,7.381875 L76.7572917,7.381875 Z"></path>
                            <path d="M77.093125,9.33875 C77.170625,9.203125 77.345,9.15145833 77.4935417,9.241875 C77.6420833,9.31291667 77.6808333,9.474375 77.6097917,9.629375 C77.5258333,9.765 77.3708333,9.81020833 77.2029167,9.72625 C77.035,9.64229167 77.0091667,9.46791667 77.093125,9.33875 Z"></path>
                            <path d="M81.4847917,8.39583333 L81.33625,8.64770833 L80.193125,7.94375 L79.5602083,8.64770833 C79.6377083,8.69291667 79.6958333,8.73166667 79.8185417,8.79625 C80.3739583,9.145 80.696875,9.75208333 80.3416667,10.3139583 C79.98,10.8758333 79.2760417,10.9791667 78.643125,10.5852083 C78.333125,10.3914583 78.12,10.133125 78.0102083,9.96520833 L78.275,9.784375 C78.3525,9.92 78.5139583,10.1525 78.7916667,10.3333333 C79.1985417,10.5852083 79.7022917,10.5464583 79.9541667,10.133125 C80.193125,9.745625 80.0897917,9.30645833 79.5020833,8.92541667 C79.3341667,8.82208333 79.1920833,8.7575 79.08875,8.71229167 L80.1027083,7.53041667 L81.4847917,8.39583333 Z"></path>
                            <polygon points="80.9552083 10.2364583 82.0595833 11.0114583 81.8916667 11.2375 80.8002083 10.4754167"></polygon>
                            <path d="M85.095,11.0695833 L84.90125,11.3085417 L83.8420833,10.4883333 L83.1575,11.12125 C83.2220833,11.16 83.293125,11.2116667 83.3964583,11.2891667 C83.9260417,11.6960417 84.184375,12.3225 83.7839583,12.845625 C83.39,13.3558333 82.673125,13.3816667 82.0983333,12.9295833 C81.7947917,12.71 81.6139583,12.4322917 81.5235417,12.2579167 L81.7947917,12.109375 C81.859375,12.2579167 82.0079167,12.5097917 82.26625,12.71 C82.6472917,13.000625 83.138125,13.0135417 83.4222917,12.6260417 C83.6935417,12.2708333 83.6289583,11.8252083 83.0735417,11.3989583 C82.925,11.27625 82.789375,11.1858333 82.673125,11.12125 L83.7904167,10.0685417 L85.095,11.0695833 Z"></path>
                            <path d="M83.8291667,13.930625 C83.9389583,13.8014583 84.106875,13.795 84.2425,13.91125 C84.378125,14.0210417 84.3845833,14.1825 84.2877083,14.318125 C84.184375,14.4408333 84.0164583,14.45375 83.8808333,14.3439583 C83.7516667,14.2147917 83.7516667,14.0533333 83.8291667,13.930625 Z"></path>
                            <path d="M88.136875,13.67875 L87.9366667,13.891875 L86.955,12.9941667 L86.2122917,13.581875 C86.276875,13.6270833 86.3479167,13.67875 86.4447917,13.7627083 C86.9291667,14.201875 87.1229167,14.860625 86.6772917,15.3514583 C86.2445833,15.829375 85.52125,15.7970833 84.9852083,15.2997917 C84.7075,15.0608333 84.5395833,14.7766667 84.4879167,14.589375 L84.765625,14.4602083 C84.82375,14.6022917 84.9464583,14.8670833 85.1789583,15.093125 C85.5277083,15.403125 86.0185417,15.4483333 86.3479167,15.0995833 C86.645,14.7702083 86.6191667,14.3116667 86.1089583,13.8466667 C85.966875,13.7110417 85.8441667,13.6141667 85.7408333,13.5495833 L86.9485417,12.574375 L88.136875,13.67875 Z"></path>
                            <path d="M87.8720833,15.558125 C88.15625,15.519375 88.4985417,15.6097917 88.77625,15.8875 C89.2089583,16.3460417 89.2025,16.93375 88.756875,17.3729167 C88.3241667,17.7927083 87.6395833,17.8766667 87.1358333,17.36 C86.6320833,16.836875 86.6772917,16.1264583 87.284375,15.5322917 C87.9172917,14.91875 88.911875,14.6022917 89.8677083,15.3514583 C89.9710417,15.4354167 90.0679167,15.519375 90.1260417,15.5775 L89.9129167,15.7841667 C89.1960417,15.054375 88.3758333,15.170625 87.865625,15.53875 L87.8720833,15.558125 Z M88.446875,17.08875 C88.8085417,16.74 88.8085417,16.31375 88.4920833,16.00375 C88.1885417,15.69375 87.69125,15.713125 87.5104167,15.8745833 C87.0970833,16.294375 86.9872917,16.798125 87.3554167,17.1597917 C87.6460417,17.47625 88.098125,17.4439583 88.446875,17.08875 Z"></path>
                            <polygon points="92.3735417 18.09625 92.6383333 18.4127083 90.0872917 20.518125 89.8289583 20.2016667"></polygon>
                            <path d="M93.9429167,20.750625 C93.93,20.615 93.8525,20.3695833 93.6716667,20.11125 C93.3552083,19.704375 93.0064583,19.7172917 92.8320833,19.859375 C92.57375,20.0595833 92.5802083,20.34375 92.7158333,20.8604167 C92.9095833,21.4804167 92.8708333,21.89375 92.49625,22.1908333 C92.089375,22.5202083 91.5016667,22.4039583 91.0108333,21.7710417 C90.8235417,21.4933333 90.6620833,21.138125 90.6491667,20.925 L90.9527083,20.8345833 C90.9785417,21.060625 91.0947917,21.3447917 91.275625,21.5966667 C91.585625,22.0035417 91.9472917,22.0875 92.2185417,21.8679167 C92.4833333,21.6741667 92.515625,21.3835417 92.360625,20.8927083 C92.166875,20.3308333 92.166875,19.8335417 92.5220833,19.56875 C92.9289583,19.2522917 93.4908333,19.4008333 93.9170833,19.9497917 C94.12375,20.2339583 94.220625,20.5052083 94.2529167,20.6472917 L93.9429167,20.750625 Z"></path>
                            <path d="M95.8739583,26.5566667 C95.015,27.0733333 94.3820833,26.77625 93.988125,26.1304167 C93.62,25.53625 93.6522917,24.8710417 94.51125,24.3479167 L96.2227083,23.3016667 L96.4422917,23.6504167 L94.7114583,24.7095833 C94.0785417,25.0970833 94.0010417,25.575 94.2658333,26.00125 C94.5370833,26.46625 95.0020833,26.601875 95.635,26.2208333 L97.3658333,25.1875 L97.5854167,25.53625 L95.8739583,26.5566667 Z"></path>
                            <path d="M98.4508333,28.1195833 C98.4572917,27.996875 98.4314583,27.745 98.289375,27.454375 C98.0504167,26.989375 97.7016667,26.9441667 97.475625,27.0475 C97.1914583,27.1895833 97.1397917,27.4608333 97.204375,28.0033333 C97.281875,28.6491667 97.1720833,29.0495833 96.7458333,29.25625 C96.274375,29.508125 95.7060417,29.2885417 95.3314583,28.578125 C95.1764583,28.268125 95.0925,27.8935417 95.111875,27.6739583 L95.44125,27.6352083 C95.4283333,27.8677083 95.48,28.1841667 95.6220833,28.4554167 C95.8545833,28.8945833 96.2033333,29.0625 96.5197917,28.8945833 C96.8233333,28.7525 96.91375,28.4877083 96.8427083,27.958125 C96.7522917,27.3639583 96.8427083,26.8925 97.2495833,26.6858333 C97.708125,26.4597917 98.250625,26.7052083 98.5735417,27.31875 C98.735,27.6416667 98.7866667,27.919375 98.77375,28.0808333 L98.4508333,28.1195833 Z"></path>
                            <path d="M97.630625,33.4283333 L97.4691667,33.0602083 L98.8125,32.3885417 C99.23875,32.1883333 99.7941667,31.9041667 100.104167,31.7879167 L100.104167,31.775 C99.70375,31.7879167 99.2710417,31.81375 98.7608333,31.8266667 L96.9589583,31.8460417 L96.83625,31.58125 L98.095625,30.3670833 C98.4702083,30.0183333 98.793125,29.7277083 99.1095833,29.48875 L99.103125,29.469375 C98.7220833,29.605 98.1925,29.8052083 97.7145833,29.9666667 L96.3260417,30.4316667 L96.1645833,30.07 L99.3485417,29.0302083 L99.5422917,29.5016667 L98.2441667,30.748125 C97.92125,31.0452083 97.65,31.2970833 97.3722917,31.5295833 L97.37875,31.5360417 C97.7210417,31.4972917 98.095625,31.4779167 98.5670833,31.4585417 L100.40125,31.4391667 L100.601458,31.910625 L97.630625,33.4283333 Z"></path>
                            <path d="M95.4541667,70.2602083 C95.4670833,70.0729167 95.5445833,69.7435417 95.731875,69.3495833 C96.158125,68.490625 96.99125,68.0191667 98.018125,68.51 C98.986875,68.9685417 99.258125,69.9372917 98.77375,70.9189583 C98.5864583,71.3258333 98.38625,71.5195833 98.2958333,71.5970833 L98.0633333,71.3775 C98.1989583,71.2483333 98.366875,71.0545833 98.4895833,70.7897917 C98.8770833,70.0277083 98.6639583,69.2785417 97.84375,68.8975 C97.049375,68.5164583 96.3647917,68.7683333 95.9708333,69.5691667 C95.848125,69.8210417 95.770625,70.09875 95.7577083,70.2989583 L95.4541667,70.2602083 Z"></path>
                            <path d="M93.7685417,73.0825 L93.9816667,72.7079167 L95.1377083,72.8822917 L95.7964583,71.7327083 L95.034375,70.8479167 L95.2475,70.48625 L97.5595833,73.218125 L97.320625,73.644375 L93.7685417,73.0825 Z M95.4347917,72.9597917 L96.4745833,73.12125 C96.7135417,73.1664583 96.933125,73.218125 97.1397917,73.256875 L97.1397917,73.2439583 C96.9847917,73.1083333 96.8427083,72.9404167 96.6941667,72.7725 L96.003125,71.9522917 L95.4347917,72.9597917 Z"></path>
                            <path d="M92.128125,75.581875 L92.3541667,75.2395833 L94.4789583,75.2266667 C94.9375,75.2266667 95.3766667,75.2266667 95.79,75.271875 L95.79,75.2525 C95.421875,75.0522917 95.0989583,74.8391667 94.6145833,74.5097917 L93.3939583,73.6895833 L93.600625,73.373125 L96.3777083,75.233125 L96.13875,75.5947917 L94.0010417,75.6335417 C93.5166667,75.6335417 93.11625,75.6077083 92.72875,75.5625 L92.7222917,75.5754167 C93.135625,75.8014583 93.4714583,76.0145833 93.9170833,76.3116667 L95.1247917,77.131875 L94.9052083,77.46125 L92.128125,75.581875 Z"></path>
                            <path d="M91.159375,79.6377083 C90.229375,78.9208333 90.2422917,77.984375 90.7847917,77.2739583 C91.3660417,76.53125 92.2766667,76.4020833 93.1033333,77.0285417 C93.9558333,77.7002083 94.04625,78.6495833 93.465,79.4052083 C92.8772917,80.1672917 91.95375,80.2383333 91.159375,79.6377083 Z M92.8514583,77.3772917 C92.2960417,76.9445833 91.4952083,76.860625 91.0108333,77.4677083 C90.5329167,78.0941667 90.8235417,78.8175 91.4177083,79.2760417 C91.9472917,79.689375 92.7545833,79.8379167 93.2583333,79.1985417 C93.7620833,78.5333333 93.4197917,77.81 92.8514583,77.3772917 Z"></path>
                            <path d="M87.69125,80.9164583 L87.9625,80.6129167 L90.0872917,80.91 C90.5135417,80.9810417 90.965625,81.045625 91.3595833,81.1683333 L91.3725,81.1554167 C91.02375,80.890625 90.7395833,80.6322917 90.3197917,80.2254167 L89.2089583,79.2372917 L89.4802083,78.9595833 L91.9602083,81.2135417 L91.6695833,81.5235417 L89.5383333,81.2329167 C89.0604167,81.1683333 88.66,81.0908333 88.291875,80.9875 L88.2854167,81.0004167 C88.66,81.278125 88.9570833,81.5429167 89.3510417,81.898125 L90.423125,82.8797917 L90.1583333,83.1704167 L87.69125,80.9164583 Z"></path>
                            <polygon points="87.76875 85.5341667 87.45875 85.8054167 85.21125 83.3383333 85.5147917 83.0541667"></polygon>
                            <path d="M82.6408333,85.501875 L82.9572917,85.2370833 L84.9852083,85.8054167 C85.4179167,85.9410417 85.8441667,86.0572917 86.2058333,86.21875 L86.21875,86.2058333 C85.928125,85.90875 85.67625,85.6116667 85.3210417,85.1789583 L84.3910417,84.04875 L84.6816667,83.8033333 L86.7870833,86.3608333 L86.45125,86.6320833 L84.4104167,86.0572917 C83.951875,85.9216667 83.5579167,85.7925 83.19625,85.6504167 L83.1897917,85.6633333 C83.5191667,85.98625 83.7839583,86.2897917 84.1133333,86.68375 L85.0239583,87.7945833 L84.7204167,88.0464583 L82.6408333,85.501875 Z"></path>
                            <path d="M79.960625,87.516875 C80.0510417,87.3683333 80.29,87.11 80.6322917,86.8645833 C81.4266667,86.29625 82.3889583,86.29625 83.0541667,87.2133333 C83.680625,88.07875 83.4610417,89.0604167 82.5633333,89.6997917 C82.18875,89.9645833 81.9239583,90.0420833 81.80125,90.0679167 L81.704375,89.7579167 C81.8852083,89.7191667 82.130625,89.62875 82.3695833,89.4608333 C83.0670833,88.97 83.2414583,88.2208333 82.711875,87.4652083 C82.2016667,86.7677083 81.4654167,86.6514583 80.7485417,87.168125 C80.5095833,87.3166667 80.3158333,87.5297917 80.1995833,87.710625 L79.960625,87.516875 Z"></path>
                            <path d="M79.728125,87.7945833 C79.8314583,87.9302083 79.78625,88.1045833 79.6377083,88.195 C79.495625,88.291875 79.3341667,88.253125 79.2308333,88.1175 C79.1533333,87.981875 79.185625,87.8139583 79.340625,87.7170833 C79.5020833,87.6266667 79.6570833,87.671875 79.728125,87.7945833 Z"></path>
                            <path d="M24.7160417,89.299375 C24.0960417,88.795625 23.75375,87.92375 24.29625,87.1552083 C24.8516667,86.3414583 25.7752083,86.3866667 26.4404167,86.8 L26.5889583,86.5997917 L26.911875,86.8258333 L26.77625,87.0260417 C27.3704167,87.5104167 27.7579167,88.3629167 27.1960417,89.1572917 C26.6277083,89.9904167 25.6525,89.9064583 25.0454167,89.5189583 L24.9097917,89.7127083 L24.5933333,89.4866667 L24.7160417,89.299375 Z M26.2854167,87.0260417 C25.7752083,86.7225 25.0583333,86.7483333 24.6320833,87.38125 C24.1735417,88.04 24.4254167,88.718125 24.8645833,89.0733333 L26.2854167,87.0260417 Z M25.1875,89.3122917 C25.633125,89.5770833 26.38875,89.6029167 26.8472917,88.9377083 C27.2735417,88.3177083 27.0797917,87.6525 26.6083333,87.2391667 L25.1875,89.3122917 Z"></path>
                            <polygon points="22.533125 87.8075 20.8475 86.431875 20.9960417 86.2510417 24.1154167 84.9141667 24.4383333 85.1854167 21.3641667 86.4641667 21.3577083 86.470625 22.7139583 87.5814583"></polygon>
                            <path d="M20.8927083,82.091875 L22.5072917,83.5708333 L22.35875,83.73875 L21.8614583,83.7452083 C20.6795833,83.7322917 20.03375,83.7904167 19.6720833,84.184375 C19.433125,84.4297917 19.3491667,84.7979167 19.7366667,85.1595833 C19.9627083,85.3533333 20.2597917,85.4372917 20.4729167,85.463125 L20.3954167,85.734375 C20.11125,85.7085417 19.7689583,85.59875 19.4783333,85.3275 C18.9229167,84.82375 19.0327083,84.2554167 19.3427083,83.9260417 C19.7560417,83.4804167 20.4729167,83.4158333 21.4933333,83.4222917 L21.8872917,83.4222917 L21.89375,83.4158333 L20.6925,82.3114583 L20.8927083,82.091875 Z"></path>
                            <path d="M17.9929167,79.0047917 L18.270625,79.2954167 L17.2502083,80.2254167 C16.9014583,80.541875 16.8110417,80.890625 17.08875,81.1877083 C17.3147917,81.41375 17.7216667,81.4589583 17.9929167,81.22 L19.1102083,80.1995833 L19.375,80.503125 L18.2770833,81.4847917 C17.999375,81.743125 17.9089583,82.0725 18.1672917,82.363125 C18.3997917,82.6279167 18.8454167,82.65375 19.1166667,82.401875 L20.2016667,81.4008333 L20.4729167,81.7108333 L19.1683333,82.905625 C18.9810417,83.0670833 18.8583333,83.19625 18.7227083,83.3383333 L18.4708333,83.0670833 L18.7485417,82.7764583 L18.7291667,82.7635417 C18.4579167,82.8152083 18.135,82.7635417 17.8572917,82.4729167 C17.611875,82.208125 17.5666667,81.8722917 17.70875,81.588125 L17.7022917,81.5816667 C17.3729167,81.6527083 17.0435417,81.5752083 16.759375,81.2652083 C16.5397917,81.02625 16.3202083,80.5160417 16.9272917,79.9670833 L17.9929167,79.0047917 Z"></path>
                            <path d="M15.286875,75.60125 L15.5452083,75.9241667 L14.45375,76.76375 C14.0920833,77.0479167 13.9822917,77.38375 14.2277083,77.7066667 C14.434375,77.965 14.8347917,78.0360417 15.1254167,77.8229167 L16.3072917,76.9058333 L16.5527083,77.22875 L15.3966667,78.1264583 C15.0995833,78.3525 14.9833333,78.681875 15.209375,78.9854167 C15.4354167,79.2566667 15.868125,79.32125 16.15875,79.0952083 L17.3147917,78.216875 L17.5602083,78.5397917 L16.1716667,79.6183333 C15.9714583,79.7539583 15.84875,79.8766667 15.69375,80.0058333 L15.4677083,79.7216667 L15.7647917,79.47625 L15.7583333,79.456875 C15.4741667,79.4827083 15.1577083,79.4052083 14.899375,79.0564583 C14.68625,78.77875 14.666875,78.4429167 14.821875,78.1910417 L14.8154167,78.1845833 C14.4860417,78.2104167 14.163125,78.1070833 13.91125,77.7777083 C13.698125,77.5129167 13.5302083,76.976875 14.1695833,76.4860417 L15.286875,75.60125 Z"></path>
                        </g>
                        <circle id="Oval" fill="#000000" fill-rule="nonzero" cx="66.6370833" cy="68.39375" r="40.7133333"></circle>
                        <circle id="Oval" stroke="#C6C7C8" stroke-width="0.1847" cx="66.630625" cy="68.39375" r="34.6683333"></circle>
                        <circle id="Oval" fill="url(#linearGradient-11)" fill-rule="nonzero" cx="66.630625" cy="68.39375" r="24.1864583"></circle>
                        <circle id="Oval" fill="url(#linearGradient-12)" fill-rule="nonzero" cx="66.6370833" cy="68.39375" r="21.1639583"></circle>
                        <circle id="Oval" fill="url(#linearGradient-13)" fill-rule="nonzero" cx="66.6370833" cy="68.39375" r="11.489375"></circle>
                        <ellipse id="Oval" fill="#FFFFFF" fill-rule="nonzero" transform="translate(76.926351, 53.986494) rotate(-44.578656) translate(-76.926351, -53.986494) " cx="76.9263515" cy="53.9864935" rx="7.26575178" ry="6.6780332"></ellipse>
                        <ellipse id="Oval" fill="#FFFFFF" fill-rule="nonzero" transform="translate(57.634275, 72.078890) rotate(-18.978536) translate(-57.634275, -72.078890) " cx="57.6342752" cy="72.0788905" rx="3.82962775" ry="3.22902846"></ellipse>
                        <circle id="Oval" fill="url(#radialGradient-14)" fill-rule="nonzero" cx="67.5154167" cy="67.3927083" r="36.6833333"></circle>
                    </g>
                    <path d="M64.48,69.2527083 L49.6775,68.4325 L31.7620833,68.4325 C23.618125,68.4325 16.9595833,75.0975 16.9595833,83.2414583 L16.9595833,165.869375 C16.9595833,174.013333 23.618125,180.678333 31.7620833,180.678333 L49.6775,180.678333 C57.8214583,180.678333 64.48,174.013333 64.48,165.869375 L64.48,69.2527083 Z" id="Shape" fill="url(#linearGradient-15)" fill-rule="nonzero"></path>
                    <path d="M73.9027083,47.1329167 C83.3254167,41.81125 95.2022917,47.5397917 109.539792,30.748125 C109.539792,30.748125 87.013125,52.0477083 87.8333333,80.7227083 L65.7135417,76.2147917 C65.7135417,76.2147917 61.4252083,54.1854167 73.9027083,47.1329167 Z" id="Shape" fill="url(#linearGradient-16)" fill-rule="nonzero"></path>
                    <polygon id="Rectangle-path" fill="url(#linearGradient-17)" fill-rule="nonzero" points="16.5527083 67.2054167 64.48 67.2054167 64.48 71.3 16.5527083 71.3"></polygon>
                    <path d="M23.928125,65.565 C22.8302083,62.2647917 33.7577083,51.634375 46.0479167,50.4072917 C58.338125,49.1802083 68.1677083,48.766875 68.1677083,48.766875 C68.1677083,48.766875 65.7070833,63.51125 52.5966667,65.971875 C39.4991667,68.4325 25.5685417,70.4797917 23.928125,65.565 Z" id="Shape" fill="url(#linearGradient-18)" fill-rule="nonzero"></path>
                    <path d="M45.2277083,63.9245833 C39.5379167,63.2141667 41.6627083,54.2822917 49.3222917,52.4545833 C57.9247917,50.41375 59.5652083,54.9152083 58.745,58.6029167 C57.93125,62.290625 51.789375,64.7447917 45.2277083,63.9245833 Z" id="Shape" fill="#000000" fill-rule="nonzero"></path>
                    <g id="Group" transform="translate(25.833333, 32.291667)" fill-rule="nonzero">
                        <path d="M18.1672917,30.8127083 C12.4775,30.1022917 14.6022917,21.1704167 22.261875,19.3427083 C30.864375,17.301875 32.5047917,21.8033333 31.6845833,25.4910417 C30.864375,29.17875 24.7225,31.6329167 18.1672917,30.8127083 Z" id="Shape" fill="url(#linearGradient-19)"></path>
                        <g id="Clipped" fill="#050100" opacity="0.75">
                            <g id="Group" transform="translate(12.916667, 12.916667)">
                                <path d="M5.250625,17.8960417 C-0.439166667,17.185625 1.685625,8.25375 9.34520833,6.42604167 C17.9477083,4.38520833 19.588125,8.88666667 18.7679167,12.574375 C17.9477083,16.2620833 11.8058333,18.71625 5.250625,17.8960417 Z" id="Shape"></path>
                            </g>
                        </g>
                    </g>
                    <path d="M94.3885417,98.3410417 C94.3885417,98.3410417 101.763958,53.2747917 111.186667,49.5935417 C111.180208,49.5935417 100.94375,43.0383333 94.3885417,98.3410417 Z" id="Shape" fill="url(#linearGradient-20)" fill-rule="nonzero"></path>
                    <path d="M202.940208,50.0004167 C202.940208,50.0004167 216.870833,52.04125 220.145208,54.9152083 C223.426042,57.7827083 229.161042,74.9877083 225.066458,83.1833333 C220.965417,91.3725 206.221042,69.6595833 202.940208,50.0004167 Z" id="Shape" fill="url(#linearGradient-21)" fill-rule="nonzero"></path>
                    <g id="Group" transform="translate(58.125000, 38.750000)" fill-rule="nonzero">
                        <circle id="Oval" fill="#FFFFFF" cx="19.0585417" cy="23.1272917" r="4.91479167"></circle>
                        <g id="Clipped" fill="#050100" opacity="0.75">
                            <g id="Group" transform="translate(12.916667, 12.916667)">
                                <circle id="Oval" cx="6.141875" cy="10.210625" r="4.91479167"></circle>
                            </g>
                        </g>
                    </g>
                </g>
            </g>
            <text id="0000-copy" font-family="FranklinGothic-Medium, Franklin Gothic Medium" font-size="76" font-weight="normal" letter-spacing="7" fill="#FFB80D">
                <tspan x="52" y="283">0000</tspan>
            </text>
        </g>
    </g>
</svg>